<?xml version="1.0" standalone="no"?>
<!DOCTYPE svg PUBLIC "-//W3C//DTD SVG 20010904//EN"
 "http://www.w3.org/TR/2001/REC-SVG-20010904/DTD/svg10.dtd">
<svg version="1.0" xmlns="http://www.w3.org/2000/svg"
 width="500.000000pt" height="100.000000pt" viewBox="0 0 500.000000 100.000000"
 preserveAspectRatio="xMidYMid meet">

<g transform="translate(0.000000,100.000000) scale(0.100000,-0.100000)"
fill="#000000" stroke="none">
<path d="M1575 686 c-20 -15 -15 -43 10 -52 18 -7 45 12 45 32 0 22 -35 35
-55 20z"/>
<path d="M3190 693 c-37 -14 -60 -47 -60 -85 0 -46 24 -73 79 -88 47 -12 55
-22 47 -56 -5 -18 -13 -24 -34 -24 -15 0 -32 4 -37 9 -6 6 -19 3 -35 -9 -23
-18 -24 -20 -9 -35 43 -44 138 -34 169 18 47 76 11 139 -92 161 -19 4 -28 13
-28 25 0 23 19 32 43 19 13 -6 24 -4 42 10 23 19 24 20 7 36 -20 18 -69 28
-92 19z"/>
<path d="M80 535 l0 -155 35 0 35 0 0 70 0 70 61 0 c60 0 60 0 57 28 -3 26 -6
27 -60 30 -54 3 -58 5 -58 27 0 23 4 25 50 25 49 0 50 1 50 30 l0 30 -85 0
-85 0 0 -155z"/>
<path d="M2660 535 l0 -155 30 0 30 0 0 155 0 155 -30 0 -30 0 0 -155z"/>
<path d="M3540 535 l0 -155 30 0 c30 0 30 0 30 58 0 76 29 113 73 90 14 -7 17
-22 17 -78 l0 -70 30 0 30 0 0 70 c0 43 -6 82 -15 99 -18 35 -63 53 -105 41
l-30 -9 0 55 c0 53 0 54 -30 54 l-30 0 0 -155z"/>
<path d="M4860 636 l0 -55 -29 10 c-65 23 -141 -52 -127 -125 4 -18 19 -44 34
-59 25 -24 34 -26 105 -26 l77 0 0 155 0 154 -30 0 c-30 0 -30 -1 -30 -54z
m-2 -145 c5 -30 -15 -51 -49 -51 -52 0 -64 71 -16 90 28 10 61 -9 65 -39z"/>
<path d="M1278 638 c-16 -11 -28 -26 -28 -34 0 -8 -7 -14 -15 -14 -9 0 -15 -9
-15 -25 0 -15 6 -25 14 -25 9 0 15 -18 18 -57 4 -46 10 -61 32 -80 15 -13 38
-23 52 -23 20 0 24 5 24 28 0 19 -7 30 -22 37 -18 8 -23 18 -23 50 0 34 3 40
23 43 33 5 31 52 -2 52 -21 0 -25 5 -28 34 l-3 35 -27 -21z"/>
<path d="M542 589 c-39 -12 -72 -60 -72 -107 0 -25 9 -43 34 -68 29 -29 41
-34 79 -34 30 0 52 6 68 20 23 19 23 20 5 34 -11 10 -30 13 -50 10 l-31 -6 25
21 c14 12 37 29 53 38 15 10 27 21 27 26 0 22 -25 50 -55 63 -39 16 -38 16
-83 3z m53 -58 c5 -9 -44 -51 -59 -51 -15 0 -4 30 16 44 26 18 35 20 43 7z"/>
<path d="M918 585 c-51 -28 -44 -94 11 -113 34 -12 42 -32 13 -32 -10 0 -28
-7 -41 -17 -23 -15 -23 -17 -6 -30 11 -7 36 -13 57 -13 95 0 108 112 16 135
-31 8 -39 28 -10 23 19 -3 52 18 52 32 0 6 -57 32 -64 30 -1 -1 -13 -7 -28
-15z"/>
<path d="M2294 586 c-43 -19 -64 -53 -64 -104 0 -35 6 -49 29 -72 27 -27 34
-29 105 -29 l76 0 0 105 0 105 -37 -2 c-21 -1 -47 0 -58 4 -11 3 -34 0 -51 -7z
m84 -80 c2 -10 1 -28 -2 -42 -5 -18 -13 -24 -34 -24 -34 0 -52 16 -52 46 0 48
79 65 88 20z"/>
<path d="M4067 593 c-4 -3 -27 -5 -52 -5 l-45 2 0 -105 0 -105 30 0 30 0 0 64
c0 55 3 67 22 80 12 8 25 13 30 10 4 -3 8 11 8 30 0 34 -8 44 -23 29z"/>
<path d="M4353 586 c-71 -32 -88 -122 -34 -177 25 -24 38 -29 79 -29 34 0 57
6 73 19 24 20 24 20 4 35 -14 10 -31 13 -55 9 -35 -5 -34 -5 23 36 49 37 56
45 47 62 -24 45 -89 66 -137 45z m51 -73 c-37 -28 -54 -34 -54 -21 0 29 32 50
59 40 11 -4 10 -8 -5 -19z"/>
<path d="M1570 485 l0 -105 30 0 30 0 0 105 0 105 -30 0 -30 0 0 -105z"/>
<path d="M1871 493 c29 -54 55 -101 58 -105 4 -4 30 40 59 97 l52 105 -30 0
c-25 0 -32 -6 -49 -46 -11 -25 -24 -43 -29 -40 -5 3 -17 23 -27 46 -16 35 -22
40 -52 40 l-34 0 52 -97z"/>
</g>
</svg>